<svg width="760" height="920" viewBox="0 0 760 920" fill="none" xmlns="http://www.w3.org/2000/svg">
  <rect width="760" height="920" rx="24" fill="#FCF7F0"/>
  <rect x="28" y="28" width="704" height="864" rx="18" stroke="#181410" stroke-opacity="0.14"/>
  <path d="M70 140H690" stroke="#181410" stroke-opacity="0.14"/>
  <path d="M70 698H690" stroke="#181410" stroke-opacity="0.14"/>
  <path d="M380 140V698" stroke="#181410" stroke-opacity="0.08"/>
  <circle cx="380" cy="404" r="150" fill="#EADFCE"/>
  <circle cx="380" cy="404" r="128" stroke="#181410" stroke-opacity="0.18" stroke-width="1.5"/>
  <path d="M346 334H414V405.376C414 427.628 402.153 448.201 382.901 459.333L380 461.01L377.099 459.333C357.847 448.201 346 427.628 346 405.376V334Z" stroke="#181410" stroke-width="3"/>
  <circle cx="380" cy="387" r="7" fill="#181410"/>
  <path d="M380 387V416" stroke="#181410" stroke-width="2.2" stroke-linecap="round"/>
  <path d="M104 770H656" stroke="#181410" stroke-opacity="0.18"/>
  <path d="M104 804H604" stroke="#181410" stroke-opacity="0.12"/>
  <path d="M104 838H548" stroke="#181410" stroke-opacity="0.12"/>
</svg>
